<svg width="205" height="289" viewBox="0 0 205 289" fill="none" xmlns="http://www.w3.org/2000/svg">
    <rect x="0.5" y="0.5" width="204" height="288" rx="3.5" stroke="#737389"
        stroke-dasharray="24 24" />
    <path
        d="M48.8554 139H50.2234L50.2234 130.954V129.64C50.2234 129.388 50.2234 129.316 50.1874 128.614C50.6914 129.586 50.9794 130.108 51.5194 130.99L56.3614 139H58.0354L58.0354 126.544H56.6674V135.112V135.85V136.3C56.6854 136.39 56.6854 136.606 56.7034 136.948C55.9834 135.616 55.7494 135.22 55.3174 134.482L50.5114 126.544H48.8554L48.8554 139ZM64.7571 129.694C62.2731 129.694 60.5451 131.602 60.5451 134.374C60.5451 137.272 62.2191 139.18 64.7391 139.18C67.2591 139.18 68.9511 137.272 68.9511 134.446C68.9511 131.602 67.2591 129.694 64.7571 129.694ZM64.7391 130.792C66.4311 130.792 67.5111 132.232 67.5111 134.446C67.5111 136.642 66.4311 138.082 64.7391 138.082C63.0651 138.082 61.9851 136.642 61.9851 134.41C61.9851 132.232 63.0831 130.792 64.7391 130.792ZM75.9608 139H78.5528C80.7848 139 81.9368 138.748 82.9628 138.028C84.4028 137.002 85.1768 135.13 85.1768 132.7C85.1768 130.252 84.4028 128.416 82.9628 127.426C81.9908 126.778 80.8748 126.544 78.7508 126.544L75.9608 126.544V139ZM77.4008 137.812V127.732H78.4448C80.3888 127.732 81.0368 127.84 81.7568 128.272C82.9448 128.992 83.6468 130.648 83.6468 132.79C83.6468 134.698 83.0348 136.228 81.9548 137.02C81.2168 137.56 80.1548 137.812 78.6608 137.812H77.4008ZM91.2473 129.694C88.7633 129.694 87.0353 131.602 87.0353 134.374C87.0353 137.272 88.7093 139.18 91.2293 139.18C93.7493 139.18 95.4413 137.272 95.4413 134.446C95.4413 131.602 93.7493 129.694 91.2473 129.694ZM91.2293 130.792C92.9213 130.792 94.0013 132.232 94.0013 134.446C94.0013 136.642 92.9213 138.082 91.2293 138.082C89.5553 138.082 88.4753 136.642 88.4753 134.41C88.4753 132.232 89.5733 130.792 91.2293 130.792ZM103.711 137.272C102.973 137.848 102.289 138.082 101.479 138.082C99.7151 138.082 98.6531 136.678 98.6531 134.356C98.6531 132.088 99.6251 130.792 101.335 130.792C102.127 130.792 102.775 131.008 103.549 131.512L104.071 130.432C103.135 129.91 102.361 129.694 101.335 129.694C98.7791 129.694 97.2131 131.512 97.2131 134.518C97.2131 137.416 98.8151 139.18 101.461 139.18C102.559 139.18 103.351 138.928 104.233 138.334L103.711 137.272ZM113.412 129.874H112.044V136.372C111.108 137.506 110.172 138.082 109.2 138.082C108.426 138.082 107.904 137.74 107.688 137.11C107.544 136.714 107.49 136.138 107.49 135.166V129.874L106.122 129.874V135.148C106.122 136.606 106.23 137.362 106.5 137.92C106.896 138.73 107.724 139.18 108.822 139.18C110.028 139.18 111.018 138.676 112.08 137.542L112.134 139H113.484C113.43 138.496 113.412 137.722 113.412 136.03V129.874ZM116.547 139H117.915V132.502C118.797 131.368 119.679 130.792 120.597 130.792C121.263 130.792 121.731 131.116 121.965 131.746C122.109 132.088 122.163 132.664 122.163 133.528V139H123.531V132.502C124.395 131.35 125.259 130.792 126.159 130.792C126.897 130.792 127.401 131.134 127.599 131.764C127.725 132.16 127.779 132.754 127.779 133.708V139H129.147V133.726C129.147 132.268 129.057 131.53 128.787 130.954C128.409 130.144 127.599 129.694 126.537 129.694C125.349 129.694 124.503 130.18 123.351 131.494C123.045 130.324 122.217 129.694 120.957 129.694C119.841 129.694 118.995 130.144 117.879 131.314L117.825 129.874H116.475C116.529 130.378 116.547 131.152 116.547 132.844V139ZM139.266 134.806C139.248 133.33 139.122 132.52 138.762 131.692C138.222 130.396 137.088 129.694 135.504 129.694C133.038 129.694 131.526 131.494 131.526 134.446C131.526 137.398 133.164 139.18 135.882 139.18C136.998 139.18 137.952 138.892 138.924 138.28L138.402 137.218C137.556 137.812 136.764 138.082 135.9 138.082C134.946 138.082 134.172 137.74 133.668 137.092C133.272 136.534 133.074 135.922 132.966 134.806H139.266ZM133.002 133.708C133.074 131.89 133.992 130.792 135.45 130.792C136.926 130.792 137.754 131.818 137.808 133.708H133.002ZM141.684 139H143.052V132.502C144.006 131.35 144.96 130.792 145.95 130.792C146.742 130.792 147.3 131.134 147.516 131.764C147.66 132.142 147.714 132.754 147.714 133.708V139H149.082V133.726C149.082 132.268 148.974 131.512 148.704 130.954C148.29 130.144 147.444 129.694 146.328 129.694C145.068 129.694 144.132 130.162 143.016 131.332L142.962 129.874H141.612C141.666 130.378 141.684 131.152 141.684 132.844V139ZM152.629 130.972V136.228C152.629 138.388 153.241 139.18 154.933 139.18C155.437 139.18 155.815 139.108 156.409 138.892L156.283 137.794C155.851 138.01 155.563 138.082 155.221 138.082C154.303 138.082 153.997 137.56 153.997 135.958V130.972H156.157V129.874H153.997V127.588L152.629 127.876V129.874H151.153V130.972H152.629Z"
        fill="#737389" />
</svg>