<svg width="289" height="205" viewBox="0 0 289 205" fill="none" xmlns="http://www.w3.org/2000/svg">
<rect x="288.5" y="0.5" width="204" height="288" rx="3.5" transform="rotate(90 288.5 0.5)" stroke="#737389" stroke-dasharray="24 24"/>
<path d="M109.988 108H111.356V99.954V98.64C111.356 98.388 111.356 98.316 111.32 97.614C111.824 98.586 112.112 99.108 112.652 99.99L117.494 108H119.168V95.544H117.8V104.112V104.85V105.3C117.818 105.39 117.818 105.606 117.836 105.948C117.116 104.616 116.882 104.22 116.45 103.482L111.644 95.544H109.988V108ZM125.89 98.694C123.406 98.694 121.678 100.602 121.678 103.374C121.678 106.272 123.352 108.18 125.872 108.18C128.392 108.18 130.084 106.272 130.084 103.446C130.084 100.602 128.392 98.694 125.89 98.694ZM125.872 99.792C127.564 99.792 128.644 101.232 128.644 103.446C128.644 105.642 127.564 107.082 125.872 107.082C124.198 107.082 123.118 105.642 123.118 103.41C123.118 101.232 124.216 99.792 125.872 99.792ZM139.884 108H141.756L146.094 95.544H144.654L141.792 103.896C141.432 104.922 141.27 105.408 140.874 106.74C140.55 105.624 140.55 105.588 140.028 104.076L137.13 95.544H135.546L139.884 108ZM147.956 108H149.324V98.874H147.956V108ZM148.64 94.662C148.082 94.662 147.668 95.058 147.668 95.616C147.668 96.21 148.064 96.606 148.64 96.606C149.216 96.606 149.612 96.21 149.612 95.634C149.612 95.058 149.216 94.662 148.64 94.662ZM158.054 94.842V100.134C157.334 99.162 156.452 98.694 155.372 98.694C153.248 98.694 151.772 100.62 151.772 103.374C151.772 106.254 153.248 108.18 155.426 108.18C156.596 108.18 157.226 107.82 158.162 106.614L158.198 108H159.494L159.476 107.676C159.422 106.074 159.422 106.02 159.422 104.688V94.842H158.054ZM158.054 105.372C157.28 106.596 156.596 107.082 155.66 107.082C154.148 107.082 153.212 105.66 153.212 103.41C153.212 101.178 154.148 99.792 155.642 99.792C156.65 99.792 157.478 100.368 158.054 101.502V105.372ZM169.601 103.806C169.583 102.33 169.457 101.52 169.097 100.692C168.557 99.396 167.423 98.694 165.839 98.694C163.373 98.694 161.861 100.494 161.861 103.446C161.861 106.398 163.499 108.18 166.217 108.18C167.333 108.18 168.287 107.892 169.259 107.28L168.737 106.218C167.891 106.812 167.099 107.082 166.235 107.082C165.281 107.082 164.507 106.74 164.003 106.092C163.607 105.534 163.409 104.922 163.301 103.806H169.601ZM163.337 102.708C163.409 100.89 164.327 99.792 165.785 99.792C167.261 99.792 168.089 100.818 168.143 102.708H163.337ZM175.548 98.694C173.064 98.694 171.336 100.602 171.336 103.374C171.336 106.272 173.01 108.18 175.53 108.18C178.05 108.18 179.742 106.272 179.742 103.446C179.742 100.602 178.05 98.694 175.548 98.694ZM175.53 99.792C177.222 99.792 178.302 101.232 178.302 103.446C178.302 105.642 177.222 107.082 175.53 107.082C173.856 107.082 172.776 105.642 172.776 103.41C172.776 101.232 173.874 99.792 175.53 99.792Z" fill="#737389"/>
</svg>
